<svg width="24" height="16" viewBox="0 0 24 16" fill="none" xmlns="http://www.w3.org/2000/svg">
<path d="M12.0408 2.18737C15.9275 2.18737 19.3937 4.43839 21.0858 7.99987C19.3937 11.5613 15.9377 13.8124 12.0408 13.8124C8.14387 13.8124 4.6879 11.5613 2.9958 7.99987C4.6879 4.43839 8.15412 2.18737 12.0408 2.18737ZM12.0408 0.0737305C6.91325 0.0737305 2.53433 3.36044 0.760193 7.99987C2.53433 12.6393 6.91325 15.926 12.0408 15.926C17.1684 15.926 21.5473 12.6393 23.3214 7.99987C21.5473 3.36044 17.1684 0.0737305 12.0408 0.0737305ZM12.0408 5.35782C13.456 5.35782 14.6046 6.54146 14.6046 7.99987C14.6046 9.45828 13.456 10.6419 12.0408 10.6419C10.6256 10.6419 9.47703 9.45828 9.47703 7.99987C9.47703 6.54146 10.6256 5.35782 12.0408 5.35782ZM12.0408 3.24418C9.49754 3.24418 7.42601 5.37896 7.42601 7.99987C7.42601 10.6208 9.49754 12.7555 12.0408 12.7555C14.5841 12.7555 16.6556 10.6208 16.6556 7.99987C16.6556 5.37896 14.5841 3.24418 12.0408 3.24418Z" fill="#5B5B5B"/>
</svg>
