<svg width="20" height="20" viewBox="0 0 20 20" fill="none" xmlns="http://www.w3.org/2000/svg">
<path fill-rule="evenodd" clip-rule="evenodd" d="M2.57129 1.5L1.51063 2.56066L4.70972 5.75975C3.3841 6.69446 2.17926 7.96927 1.14084 9.51156C0.953053 9.79158 0.953053 10.1828 1.14084 10.4628C3.44216 13.8849 6.56091 15.9892 10 15.9892C11.3851 15.9892 12.7182 15.6479 13.9669 15.0169L16.9036 17.9536L17.9642 16.8929L15.2901 14.2189C16.6158 13.2841 17.8207 12.0093 18.8592 10.4669C19.0469 10.1869 19.0469 9.7957 18.8592 9.51567C16.5578 6.09357 13.4391 3.98925 10 3.98925C8.61486 3.98925 7.28169 4.33061 6.03296 4.96167L2.57129 1.5ZM6.75715 7.80718C6.45161 8.37169 6.26085 9.02098 6.22215 9.71334C6.07855 12.2706 7.96379 14.375 10.2467 14.2144C11.0122 14.1591 11.7191 13.8434 12.2967 13.3467L10.9525 12.0026C10.7043 12.1504 10.4263 12.2421 10.1326 12.2624C8.90273 12.3489 7.88647 11.2164 7.96747 9.841C7.98073 9.60035 8.02815 9.36949 8.10432 9.15435L6.75715 7.80718ZM9.04687 7.97558L7.70034 6.62905C8.27823 6.1325 8.9862 5.81775 9.7533 5.76413C12.0362 5.60352 13.9214 7.70785 13.7778 10.2652C13.7379 10.9563 13.5463 11.6048 13.2402 12.1689L11.8964 10.8251C11.9737 10.6086 12.0221 10.376 12.0362 10.1334C12.1172 8.75795 11.101 7.62549 9.87113 7.71197C9.57549 7.73353 9.29605 7.82654 9.04687 7.97558Z" fill="#595959"/>
</svg>
