<svg width="20" height="20" viewBox="0 0 20 20" fill="none" xmlns="http://www.w3.org/2000/svg">
<path d="M10 4C6.56091 4 3.44216 6.10432 1.14084 9.5223C0.953053 9.80233 0.953053 10.1935 1.14084 10.4736C3.44216 13.8957 6.56091 16 10 16C13.4391 16 16.5578 13.8957 18.8592 10.4777C19.047 10.1977 19.047 9.80645 18.8592 9.52642C16.5578 6.10432 13.4391 4 10 4ZM10.2467 14.2251C7.9638 14.3857 6.07857 12.2814 6.22217 9.72409C6.34 7.61565 7.86806 5.90666 9.7533 5.77488C12.0362 5.61428 13.9214 7.7186 13.7778 10.2759C13.6563 12.3802 12.1283 14.0892 10.2467 14.2251ZM10.1326 12.2732C8.90275 12.3596 7.88646 11.2272 7.96747 9.85175C8.03007 8.71517 8.85486 7.79684 9.87113 7.72272C11.101 7.63624 12.1172 8.7687 12.0362 10.1441C11.9699 11.2848 11.1452 12.2032 10.1326 12.2732Z" fill="#595959"/>
</svg>
