<svg width="15" height="19" viewBox="0 0 15 19"  xmlns="http://www.w3.org/2000/svg">
<path fill-rule="evenodd" clip-rule="evenodd" d="M10 11.3501C10 12.7308 8.88071 13.8501 7.5 13.8501C6.11929 13.8501 5 12.7308 5 11.3501C5 9.96939 6.11929 8.8501 7.5 8.8501C8.88071 8.8501 10 9.96939 10 11.3501ZM9 11.3501C9 12.1785 8.32843 12.8501 7.5 12.8501C6.67157 12.8501 6 12.1785 6 11.3501C6 10.5217 6.67157 9.8501 7.5 9.8501C8.32843 9.8501 9 10.5217 9 11.3501Z" fill="#6D776F"/>
<path fill-rule="evenodd" clip-rule="evenodd" d="M7.47156 0.25C4.94163 0.25 2.89072 2.30091 2.89072 4.83084V6.19045C1.40979 6.32642 0.25 7.57193 0.25 9.08832V13.5075C0.25 16.1267 2.3733 18.25 4.99251 18.25H10.0045C12.6237 18.25 14.747 16.1267 14.747 13.5075V9.08832C14.747 7.55358 13.559 6.29632 12.0524 6.18601V4.83084C12.0524 2.30091 10.0015 0.25 7.47156 0.25ZM2.98214 7.18626L3.89072 7.10285V4.83084C3.89072 2.8532 5.49391 1.25 7.47156 1.25C9.4492 1.25 11.0524 2.8532 11.0524 4.83084V7.11546L11.9794 7.18334C12.9673 7.25567 13.747 8.08139 13.747 9.08832V13.5075C13.747 15.5744 12.0714 17.25 10.0045 17.25H4.99251C2.92558 17.25 1.25 15.5744 1.25 13.5075V9.08832C1.25 8.09355 2.01116 7.27541 2.98214 7.18626Z" fill="#6D776F"/>
<path fill-rule="evenodd" clip-rule="evenodd" d="M7.47156 0.5C5.0797 0.5 3.14072 2.43898 3.14072 4.83084V6.41855L2.91358 6.43941C1.56013 6.56367 0.5 7.70233 0.5 9.08832V13.5075C0.5 15.9886 2.51137 18 4.99251 18H10.0045C12.4856 18 14.497 15.9886 14.497 13.5075V9.08832C14.497 7.68553 13.411 6.53616 12.0341 6.43534L11.8024 6.41837V4.83084C11.8024 2.43898 9.86341 0.5 7.47156 0.5ZM2.64072 4.83084C2.64072 2.16284 4.80356 0 7.47156 0C10.1396 0 12.3024 2.16284 12.3024 4.83084V5.96223C13.8271 6.18744 14.997 7.50115 14.997 9.08832V13.5075C14.997 16.2648 12.7618 18.5 10.0045 18.5H4.99251C2.23522 18.5 0 16.2648 0 13.5075V9.08832C0 7.51989 1.14244 6.21854 2.64072 5.97067V4.83084ZM3.64072 4.83084C3.64072 2.71512 5.35584 1 7.47156 1C9.58727 1 11.3024 2.71512 11.3024 4.83084V6.8831L11.9976 6.934C13.1153 7.01584 13.997 7.94958 13.997 9.08832V13.5075C13.997 15.7125 12.2095 17.5 10.0045 17.5H4.99251C2.78751 17.5 1 15.7125 1 13.5075V9.08832C1 7.96331 1.86066 7.03818 2.95929 6.93731L3.64072 6.87475V4.83084ZM7.47156 1.5C5.63199 1.5 4.14072 2.99127 4.14072 4.83084V7.33095L3.005 7.43522C2.16166 7.51265 1.5 8.22379 1.5 9.08832V13.5075C1.5 15.4363 3.06365 17 4.99251 17H10.0045C11.9334 17 13.497 15.4363 13.497 13.5075V9.08832C13.497 8.21321 12.8192 7.4955 11.9611 7.43267L10.8024 7.34783V4.83084C10.8024 2.99127 9.31113 1.5 7.47156 1.5ZM4.75 11.3501C4.75 9.83132 5.98122 8.6001 7.5 8.6001C9.01878 8.6001 10.25 9.83132 10.25 11.3501C10.25 12.8689 9.01878 14.1001 7.5 14.1001C5.98122 14.1001 4.75 12.8689 4.75 11.3501ZM7.5 9.1001C6.25736 9.1001 5.25 10.1075 5.25 11.3501C5.25 12.5927 6.25736 13.6001 7.5 13.6001C8.74264 13.6001 9.75 12.5927 9.75 11.3501C9.75 10.1075 8.74264 9.1001 7.5 9.1001ZM5.75 11.3501C5.75 10.3836 6.5335 9.6001 7.5 9.6001C8.4665 9.6001 9.25 10.3836 9.25 11.3501C9.25 12.3166 8.4665 13.1001 7.5 13.1001C6.5335 13.1001 5.75 12.3166 5.75 11.3501ZM7.5 10.1001C6.80964 10.1001 6.25 10.6597 6.25 11.3501C6.25 12.0405 6.80964 12.6001 7.5 12.6001C8.19036 12.6001 8.75 12.0405 8.75 11.3501C8.75 10.6597 8.19036 10.1001 7.5 10.1001Z" fill="#6D776F"/>
</svg>
