<svg width="13" height="15" viewBox="0 0 13 15" fill="none" xmlns="http://www.w3.org/2000/svg">
<path d="M6.78396 8.34398C2.77579 8.34398 0.568359 10.2401 0.568359 13.6832C0.568359 13.9521 0.786307 14.1701 1.05522 14.1701H12.5127C12.7816 14.1701 12.9995 13.9521 12.9995 13.6832C12.9996 10.2403 10.7921 8.34398 6.78396 8.34398ZM1.55979 13.1964C1.75129 10.622 3.50641 9.31772 6.78396 9.31772C10.0615 9.31772 11.8167 10.622 12.0083 13.1964H1.55979Z" fill="#454749"/>
<path d="M6.78386 0.830078C4.94271 0.830078 3.55436 2.24636 3.55436 4.12435C3.55436 6.05735 5.0031 7.62975 6.78386 7.62975C8.56462 7.62975 10.0134 6.05735 10.0134 4.12451C10.0134 2.24636 8.62502 0.830078 6.78386 0.830078ZM6.78386 6.65619C5.53994 6.65619 4.52808 5.52049 4.52808 4.12451C4.52808 2.7798 5.4768 1.80379 6.78386 1.80379C8.07 1.80379 9.03965 2.80137 9.03965 4.12451C9.03965 5.52049 8.02779 6.65619 6.78386 6.65619Z" fill="#454749"/>
</svg>
