<svg width="15" height="18" viewBox="0 0 15 18" fill="none" xmlns="http://www.w3.org/2000/svg">
<path fill-rule="evenodd" clip-rule="evenodd" d="M7.41935 7.59677C8.92421 7.59677 10.3387 6.14337 10.3387 4.41935C10.3387 2.80704 9.03167 1.5 7.41935 1.5C5.80704 1.5 4.5 2.80704 4.5 4.41935C4.5 6.14337 5.9145 7.59677 7.41935 7.59677ZM5.24808 8.46402C3.90598 7.62909 3 6.07094 3 4.41935C3 1.97861 4.97861 0 7.41935 0C9.8601 0 11.8387 1.97861 11.8387 4.41935C11.8387 6.08804 10.9139 7.66134 9.54881 8.48971C8.91723 8.87298 8.19141 9.09677 7.41935 9.09677C6.6302 9.09677 5.88936 8.86295 5.24808 8.46402ZM4.67869 9.87452C2.39637 9.42653 0 10.9017 0 13.239V15.4194C0 16.8446 1.15539 18 2.58065 18H12.2581C13.6833 18 14.8387 16.8446 14.8387 15.4194V13.2952C14.8387 10.9419 12.4079 9.46601 10.1058 9.90469C10.0594 9.91353 10.013 9.92314 9.96675 9.93355C9.096 10.1293 8.25768 10.225 7.41935 10.2217C6.56576 10.2184 5.71216 10.1126 4.82432 9.90577C4.77585 9.89447 4.72729 9.88406 4.67869 9.87452ZM10.2958 11.397C8.31369 11.8427 6.45954 11.827 4.48394 11.3666C3.72358 11.1895 2.93848 11.3496 2.3651 11.727C1.81019 12.0923 1.5 12.6189 1.5 13.239V15.4194C1.5 16.0162 1.98382 16.5 2.58065 16.5H12.2581C12.8549 16.5 13.3387 16.0162 13.3387 15.4194V13.2952C13.3387 12.6736 13.026 12.1428 12.459 11.7713C11.8729 11.3873 11.0702 11.2229 10.2958 11.397Z" fill="#6D776F"/>
</svg>
